<mxfile host="65bd71144e" scale="3" border="10">
    <diagram id="VsGEcCHb5rbD83MSZlOJ" name="Page-1">
        <mxGraphModel dx="557" dy="645" grid="0" gridSize="10" guides="1" tooltips="1" connect="1" arrows="1" fold="1" page="1" pageScale="1" pageWidth="827" pageHeight="583" background="#ffffff" math="1" shadow="0">
            <root>
                <mxCell id="0"/>
                <mxCell id="1" parent="0"/>
                <mxCell id="24" value="" style="rounded=0;whiteSpace=wrap;html=1;labelBackgroundColor=#04d995;fillStyle=hatch;strokeColor=#000000;strokeWidth=1;fontSize=15;fontColor=#000000;fillColor=none;gradientColor=none;gradientDirection=radial;opacity=50;glass=0;shadow=0;dashed=1;" vertex="1" parent="1">
                    <mxGeometry x="313" y="36" width="457" height="480" as="geometry"/>
                </mxCell>
                <mxCell id="4" value="$$&lt;br style=&quot;font-size: 17px;&quot;&gt;\begin{pmatrix}&lt;br style=&quot;font-size: 17px;&quot;&gt;p_{11} &amp;amp; p_{12} &amp;amp; \cdots &amp;amp; p_{1V} \\&lt;br style=&quot;font-size: 17px;&quot;&gt;p_{21} &amp;amp; p_{22} &amp;amp; \cdots &amp;amp;p_{2V} \\&lt;br style=&quot;font-size: 17px;&quot;&gt;\vdots &amp;amp; \vdots &amp;amp; \vdots &amp;amp; \vdots \\&lt;br style=&quot;font-size: 17px;&quot;&gt;p_{k1} &amp;amp; p_{k2} &amp;amp; \cdots &amp;amp; p_{kV}&lt;br style=&quot;font-size: 17px;&quot;&gt;\end{pmatrix}&lt;br style=&quot;font-size: 17px;&quot;&gt;$$" style="text;html=1;strokeColor=none;fillColor=none;align=center;verticalAlign=middle;whiteSpace=wrap;rounded=0;fontColor=#000000;fontSize=17;" vertex="1" parent="1">
                    <mxGeometry x="91" y="208" width="210" height="120" as="geometry"/>
                </mxCell>
                <mxCell id="5" value="$$\beta$$" style="text;html=1;strokeColor=none;fillColor=none;align=center;verticalAlign=middle;whiteSpace=wrap;rounded=0;fontSize=17;fontColor=#000000;" vertex="1" parent="1">
                    <mxGeometry x="142" y="352" width="60" height="30" as="geometry"/>
                </mxCell>
                <mxCell id="6" value="words" style="text;html=1;strokeColor=none;fillColor=none;align=center;verticalAlign=middle;whiteSpace=wrap;rounded=0;fontSize=17;fontColor=#000000;fontStyle=1" vertex="1" parent="1">
                    <mxGeometry x="161" y="162" width="60" height="30" as="geometry"/>
                </mxCell>
                <mxCell id="32" style="edgeStyle=orthogonalEdgeStyle;curved=1;html=1;exitX=1;exitY=0.5;exitDx=0;exitDy=0;strokeColor=#1A1A1A;strokeWidth=1.5;fontSize=15;fontColor=#000000;endSize=6;elbow=vertical;dashed=1;" edge="1" parent="1" source="7">
                    <mxGeometry relative="1" as="geometry">
                        <mxPoint x="114" y="395" as="targetPoint"/>
                    </mxGeometry>
                </mxCell>
                <mxCell id="7" value="topics" style="text;html=1;strokeColor=none;fillColor=none;align=center;verticalAlign=middle;whiteSpace=wrap;rounded=0;fontSize=17;fontColor=#000000;fontStyle=1;horizontal=0;flipV=0;flipH=1;direction=south;" vertex="1" parent="1">
                    <mxGeometry x="54" y="233" width="30" height="60" as="geometry"/>
                </mxCell>
                <mxCell id="8" value="&lt;h1&gt;&lt;font style=&quot;font-size: 14px;&quot;&gt;Topic1&lt;/font&gt;&lt;/h1&gt;&lt;span style=&quot;color: rgb(13, 13, 13); font-family: MiloTE, MiloTESec, Charter, &amp;quot;Bitstream Charter&amp;quot;, &amp;quot;Iowan Old Style&amp;quot;, &amp;quot;Calisto MT&amp;quot;, serif;&quot;&gt;&lt;font style=&quot;font-size: 15px;&quot;&gt;A second threat to European &lt;span style=&quot;background-color: rgb(112, 192, 168);&quot;&gt;banks&lt;/span&gt; is deteriorating assets. Here, too, the danger seems manageable. Like bonds, the value of existing loans on &lt;span style=&quot;background-color: rgb(112, 192, 168);&quot;&gt;banks&lt;/span&gt;â€™ books diminishes when interest rates rise. But regulators in Europe have forced &lt;span style=&quot;background-color: rgb(112, 192, 168);&quot;&gt;banks&lt;/span&gt;, big and small, to buy hedges against that risk.&lt;/font&gt;&lt;/span&gt;" style="text;html=1;strokeColor=none;fillColor=none;spacing=5;spacingTop=-20;whiteSpace=wrap;overflow=hidden;rounded=0;fontSize=17;fontColor=#000000;" vertex="1" parent="1">
                    <mxGeometry x="337" y="37" width="410" height="200" as="geometry"/>
                </mxCell>
                <mxCell id="9" value="&lt;h1&gt;&lt;font style=&quot;font-size: 14px;&quot;&gt;Topic2&lt;/font&gt;&lt;/h1&gt;&lt;span style=&quot;color: rgb(13, 13, 13); font-family: MiloTE, MiloTESec, Charter, &amp;quot;Bitstream Charter&amp;quot;, &amp;quot;Iowan Old Style&amp;quot;, &amp;quot;Calisto MT&amp;quot;, serif;&quot;&gt;&lt;font style=&quot;font-size: 15px;&quot;&gt;This should not overshadow the achievement of a model that can effortlessly mimic so many &lt;span style=&quot;background-color: rgb(204, 204, 204);&quot;&gt;languages&lt;/span&gt;, including those with limited training data. Speakers of smaller &lt;span style=&quot;background-color: rgb(204, 204, 204);&quot;&gt;languages&lt;/span&gt; have worried for years about &lt;span style=&quot;background-color: rgb(204, 204, 204);&quot;&gt;language&lt;/span&gt; technologies passing them by. How about those &lt;span style=&quot;background-color: rgb(219, 88, 88);&quot;&gt;banks&lt;/span&gt; who are using...&lt;/font&gt;&lt;/span&gt;" style="text;html=1;strokeColor=none;fillColor=none;spacing=5;spacingTop=-20;whiteSpace=wrap;overflow=hidden;rounded=0;fontSize=17;fontColor=#000000;" vertex="1" parent="1">
                    <mxGeometry x="337" y="208" width="410" height="200" as="geometry"/>
                </mxCell>
                <mxCell id="10" value="&lt;h1&gt;&lt;font style=&quot;font-size: 14px;&quot;&gt;Topic...&lt;/font&gt;&lt;/h1&gt;" style="text;html=1;strokeColor=none;fillColor=none;spacing=5;spacingTop=-20;whiteSpace=wrap;overflow=hidden;rounded=0;fontSize=17;fontColor=#000000;" vertex="1" parent="1">
                    <mxGeometry x="337" y="395" width="410" height="83" as="geometry"/>
                </mxCell>
                <mxCell id="15" style="edgeStyle=orthogonalEdgeStyle;curved=1;html=1;entryX=0.439;entryY=0.61;entryDx=0;entryDy=0;entryPerimeter=0;strokeColor=#70C0A8;strokeWidth=1.5;fontSize=15;fontColor=#000000;" edge="1" parent="1" target="8">
                    <mxGeometry relative="1" as="geometry">
                        <mxPoint x="187" y="222" as="sourcePoint"/>
                    </mxGeometry>
                </mxCell>
                <mxCell id="18" style="edgeStyle=orthogonalEdgeStyle;curved=1;html=1;exitX=1;exitY=0.5;exitDx=0;exitDy=0;entryX=0.488;entryY=0.415;entryDx=0;entryDy=0;entryPerimeter=0;strokeColor=#70C0A8;strokeWidth=1.5;fontSize=15;fontColor=#000000;endSize=6;" edge="1" parent="1" source="11" target="8">
                    <mxGeometry relative="1" as="geometry"/>
                </mxCell>
                <mxCell id="11" value="" style="ellipse;whiteSpace=wrap;html=1;aspect=fixed;labelBackgroundColor=#04d995;fontSize=15;fontColor=#000000;fillColor=none;strokeColor=#70C0A8;strokeWidth=2;dashed=1;fillStyle=auto;gradientColor=none;dashPattern=1 1;perimeterSpacing=0;" vertex="1" parent="1">
                    <mxGeometry x="157" y="208" width="30" height="30" as="geometry"/>
                </mxCell>
                <mxCell id="19" style="edgeStyle=orthogonalEdgeStyle;curved=1;html=1;exitX=1;exitY=0.5;exitDx=0;exitDy=0;entryX=0.439;entryY=0.81;entryDx=0;entryDy=0;entryPerimeter=0;strokeColor=#DB5858;strokeWidth=1.5;fontSize=15;fontColor=#000000;endSize=6;" edge="1" parent="1" source="12" target="9">
                    <mxGeometry relative="1" as="geometry"/>
                </mxCell>
                <mxCell id="12" value="" style="ellipse;whiteSpace=wrap;html=1;aspect=fixed;labelBackgroundColor=#04d995;fontSize=15;fontColor=#000000;fillColor=none;strokeColor=#DB5858;strokeWidth=2;dashed=1;fillStyle=auto;gradientColor=none;dashPattern=1 1;perimeterSpacing=0;" vertex="1" parent="1">
                    <mxGeometry x="156" y="304" width="30" height="30" as="geometry"/>
                </mxCell>
                <mxCell id="13" style="edgeStyle=orthogonalEdgeStyle;html=1;exitX=1;exitY=0.5;exitDx=0;exitDy=0;entryX=-0.002;entryY=0.823;entryDx=0;entryDy=0;entryPerimeter=0;fontSize=15;fontColor=#000000;strokeColor=#70C0A8;strokeWidth=1.5;curved=1;movable=1;resizable=1;rotatable=1;deletable=1;editable=1;connectable=1;" edge="1" parent="1" source="11" target="8">
                    <mxGeometry relative="1" as="geometry"/>
                </mxCell>
                <mxCell id="21" style="edgeStyle=orthogonalEdgeStyle;curved=1;html=1;exitX=1;exitY=1;exitDx=0;exitDy=0;entryX=0.512;entryY=0.51;entryDx=0;entryDy=0;entryPerimeter=0;strokeColor=#B3B3B3;strokeWidth=1.5;fontSize=15;fontColor=#000000;endSize=6;" edge="1" parent="1" source="20" target="9">
                    <mxGeometry relative="1" as="geometry"/>
                </mxCell>
                <mxCell id="22" style="edgeStyle=orthogonalEdgeStyle;curved=1;html=1;exitX=1;exitY=1;exitDx=0;exitDy=0;entryX=0.756;entryY=0.61;entryDx=0;entryDy=0;entryPerimeter=0;strokeColor=#B3B3B3;strokeWidth=1.5;fontSize=15;fontColor=#000000;endSize=6;" edge="1" parent="1" source="20" target="9">
                    <mxGeometry relative="1" as="geometry"/>
                </mxCell>
                <mxCell id="23" style="edgeStyle=orthogonalEdgeStyle;curved=1;html=1;exitX=1;exitY=1;exitDx=0;exitDy=0;entryX=0.488;entryY=0.71;entryDx=0;entryDy=0;entryPerimeter=0;strokeColor=#B3B3B3;strokeWidth=1.5;fontSize=15;fontColor=#000000;endSize=6;" edge="1" parent="1" source="20" target="9">
                    <mxGeometry relative="1" as="geometry"/>
                </mxCell>
                <mxCell id="20" value="" style="ellipse;whiteSpace=wrap;html=1;aspect=fixed;labelBackgroundColor=#04d995;fontSize=15;fontColor=#000000;fillColor=none;strokeColor=#B3B3B3;strokeWidth=2;dashed=1;fillStyle=auto;gradientColor=none;dashPattern=1 1;perimeterSpacing=0;" vertex="1" parent="1">
                    <mxGeometry x="247" y="235" width="30" height="30" as="geometry"/>
                </mxCell>
                <mxCell id="25" value="A document can&amp;nbsp; be associated with multiple topics, which means the topic node is sampled repeatedly within document." style="text;html=1;strokeColor=none;fillColor=none;align=left;verticalAlign=middle;whiteSpace=wrap;rounded=0;labelBackgroundColor=none;fillStyle=auto;strokeWidth=2;fontSize=13;fontColor=#000000;fontStyle=2" vertex="1" parent="1">
                    <mxGeometry x="477" y="451" width="270" height="30" as="geometry"/>
                </mxCell>
                <mxCell id="26" value="$$\theta \sim \text{Dirichlet} (\alpha)$$" style="text;html=1;strokeColor=none;fillColor=none;align=center;verticalAlign=middle;whiteSpace=wrap;rounded=0;labelBackgroundColor=none;fillStyle=auto;strokeWidth=2;fontSize=15;fontColor=#000000;" vertex="1" parent="1">
                    <mxGeometry x="141" y="392" width="60" height="30" as="geometry"/>
                </mxCell>
                <mxCell id="33" value="Two parameters \(\alpha, \beta \) will be learned from the data" style="text;html=1;strokeColor=#808080;fillColor=none;align=left;verticalAlign=middle;whiteSpace=wrap;rounded=0;labelBackgroundColor=none;fillStyle=hatch;strokeWidth=1;fontSize=15;fontColor=#000000;" vertex="1" parent="1">
                    <mxGeometry x="88" y="432" width="194" height="40" as="geometry"/>
                </mxCell>
            </root>
        </mxGraphModel>
    </diagram>
</mxfile>